<svg xmlns="http://www.w3.org/2000/svg" viewBox="0 0 1440 320">
  <path fill="#0099ff" fill-opacity="1" d="M0,256L34.3,250.7C68.6,245,137,235,206,202.7C274.3,171,343,117,411,133.3C480,149,549,235,617,261.3C685.7,288,754,256,823,256C891.4,256,960,288,1029,277.3C1097.1,267,1166,213,1234,197.3C1302.9,181,1371,203,1406,213.3L1440,224L1440,320L1405.7,320C1371.4,320,1303,320,1234,320C1165.7,320,1097,320,1029,320C960,320,891,320,823,320C754.3,320,686,320,617,320C548.6,320,480,320,411,320C342.9,320,274,320,206,320C137.1,320,69,320,34,320L0,320Z"></path>
</svg>